<svg width="117" height="22" viewBox="0 0 117 22" fill="none" xmlns="http://www.w3.org/2000/svg">
<path d="M0 22V0H17.2128V3.96H4.63915V8.98857H12.9256V12.8229H4.63915V18.04H17.3408V22H0Z" fill="#020202"/>
<path d="M24.5405 22V0H29.1796V17.9771H41.4334V22H24.5405Z" fill="#020202"/>
<path d="M48.5498 22V0H53.189V17.9771H65.4427V22H48.5498Z" fill="#020202"/>
<path d="M72.5592 22V0H89.772V3.96H77.1983V8.98857H85.4848V12.8229H77.1983V18.04H89.9V22H72.5592Z" fill="#020202"/>
<path d="M97.0997 0H101.515L112.649 14.2371V0H117V22H112.905L101.483 7.29143V22H97.0997V0Z" fill="#020202"/>
</svg>