<svg width="143" height="44" viewBox="0 0 143 44" fill="none" xmlns="http://www.w3.org/2000/svg">
<path d="M12 22V0H29.2128V3.96H16.6391V8.98857H24.9256V12.8229H16.6391V18.04H29.3408V22H12Z" fill="#020202"/>
<path d="M36.5405 22V0H41.1796V17.9771H53.4334V22H36.5405Z" fill="#020202"/>
<path d="M60.5498 22V0H65.189V17.9771H77.4427V22H60.5498Z" fill="#020202"/>
<path d="M84.5592 22V0H101.772V3.96H89.1983V8.98857H97.4848V12.8229H89.1983V18.04H101.9V22H84.5592Z" fill="#020202"/>
<path d="M109.1 0H113.515L124.649 14.2371V0H129V22H124.905L113.483 7.29143V22H109.1V0Z" fill="#020202"/>
<path d="M3.26953 31.0449V32.3984H2.50781V41.6621H3.26953V43.0098H0.667969V31.0449H3.26953ZM13.237 32.4688H14.8191L16.8698 38.5684L18.9148 32.4688H20.4968L17.5085 41H16.2253L13.237 32.4688ZM12.323 32.4688H13.9343L14.2331 38.791V41H12.323V32.4688ZM19.7995 32.4688H21.4167V41H19.5007V38.791L19.7995 32.4688ZM29.1251 34.0918L26.922 41H24.8829L28.0411 32.4688H29.3302L29.1251 34.0918ZM30.9532 41L28.7442 34.0918L28.5157 32.4688H29.8223L32.9923 41H30.9532ZM30.8595 37.8242V39.3008H26.4122V37.8242H30.8595ZM36.3413 32.4688H39.6166C40.269 32.4688 40.8334 32.5664 41.31 32.7617C41.7905 32.957 42.1596 33.2461 42.4174 33.6289C42.6752 34.0117 42.8041 34.4844 42.8041 35.0469C42.8041 35.5156 42.728 35.9141 42.5756 36.2422C42.4233 36.5703 42.2084 36.8418 41.9311 37.0566C41.6577 37.2715 41.3373 37.4453 40.9702 37.5781L40.3491 37.918H37.56L37.5483 36.4355H39.6225C39.9077 36.4355 40.144 36.3848 40.3315 36.2832C40.519 36.1816 40.6596 36.0391 40.7534 35.8555C40.851 35.668 40.8998 35.4492 40.8998 35.1992C40.8998 34.9414 40.851 34.7188 40.7534 34.5312C40.6557 34.3438 40.5112 34.2012 40.3198 34.1035C40.1323 34.002 39.8979 33.9512 39.6166 33.9512H38.2514V41H36.3413V32.4688ZM41.0639 41L39.1479 37.209L41.1635 37.2031L43.1088 40.9121V41H41.0639ZM48.6492 32.4688V41H46.7391V32.4688H48.6492ZM53.7469 32.4688L50.407 36.7344L48.4617 38.8438L48.116 37.0684L49.3992 35.2285L51.4031 32.4688H53.7469ZM51.532 41L49.1766 37.1035L50.6297 35.9727L53.7938 41H51.532ZM62.8322 39.5234V41H58.2912V39.5234H62.8322ZM58.9416 32.4688V41H57.0314V32.4688H58.9416ZM62.2463 35.9023V37.332H58.2912V35.9023H62.2463ZM62.838 32.4688V33.9512H58.2912V32.4688H62.838ZM70.4995 32.4688V41H68.5952V32.4688H70.4995ZM73.0952 32.4688V33.9512H66.0523V32.4688H73.0952ZM86.4026 38.75C86.4026 38.6055 86.3811 38.4766 86.3381 38.3633C86.2952 38.2461 86.217 38.1387 86.1038 38.041C85.9905 37.9434 85.8303 37.8457 85.6233 37.748C85.4163 37.6465 85.1448 37.543 84.8088 37.4375C84.426 37.3125 84.0608 37.1719 83.7131 37.0156C83.3694 36.8555 83.0627 36.6699 82.7932 36.459C82.5237 36.248 82.3108 36.002 82.1545 35.7207C82.0022 35.4395 81.926 35.1113 81.926 34.7363C81.926 34.373 82.0061 34.0449 82.1663 33.752C82.3264 33.459 82.551 33.209 82.8401 33.002C83.1291 32.791 83.469 32.6309 83.8596 32.5215C84.2502 32.4082 84.6799 32.3516 85.1487 32.3516C85.7737 32.3516 86.3225 32.4629 86.7952 32.6855C87.2717 32.9043 87.6428 33.2129 87.9084 33.6113C88.1741 34.0059 88.3069 34.4648 88.3069 34.9883H86.4084C86.4084 34.7578 86.3596 34.5547 86.262 34.3789C86.1682 34.1992 86.0237 34.0586 85.8284 33.957C85.637 33.8555 85.3967 33.8047 85.1077 33.8047C84.8264 33.8047 84.5901 33.8477 84.3987 33.9336C84.2112 34.0156 84.0686 34.1289 83.9709 34.2734C83.8772 34.418 83.8303 34.5762 83.8303 34.748C83.8303 34.8848 83.8655 35.0098 83.9358 35.123C84.01 35.2324 84.1155 35.3359 84.2522 35.4336C84.3928 35.5273 84.5647 35.6172 84.7678 35.7031C84.9709 35.7891 85.2034 35.8711 85.4651 35.9492C85.9221 36.0938 86.3264 36.2539 86.678 36.4297C87.0334 36.6055 87.3323 36.8047 87.5745 37.0273C87.8166 37.25 87.9983 37.502 88.1194 37.7832C88.2444 38.0645 88.3069 38.3828 88.3069 38.7383C88.3069 39.1172 88.2327 39.4531 88.0842 39.7461C87.9397 40.0391 87.7288 40.2891 87.4514 40.4961C87.178 40.6992 86.8498 40.8535 86.467 40.959C86.0842 41.0645 85.6565 41.1172 85.1838 41.1172C84.7541 41.1172 84.3303 41.0625 83.9123 40.9531C83.4944 40.8398 83.1155 40.668 82.7756 40.4375C82.4397 40.207 82.1702 39.9141 81.967 39.5586C81.7678 39.1992 81.6682 38.7734 81.6682 38.2812H83.5784C83.5784 38.5391 83.6155 38.7578 83.6897 38.9375C83.7639 39.1133 83.8694 39.2559 84.0061 39.3652C84.1467 39.4746 84.3166 39.5527 84.5159 39.5996C84.7151 39.6465 84.9377 39.6699 85.1838 39.6699C85.469 39.6699 85.6995 39.6309 85.8752 39.5527C86.0549 39.4707 86.1877 39.3594 86.2737 39.2188C86.3596 39.0781 86.4026 38.9219 86.4026 38.75ZM97.7965 35.9023V37.3789H93.3785V35.9023H97.7965ZM93.982 32.4688V41H92.0719V32.4688H93.982ZM99.1148 32.4688V41H97.2105V32.4688H99.1148ZM106.823 34.0918L104.62 41H102.581L105.739 32.4688H107.028L106.823 34.0918ZM108.651 41L106.442 34.0918L106.214 32.4688H107.52L110.69 41H108.651ZM108.558 37.8242V39.3008H104.11V37.8242H108.558ZM114.039 32.4688H117.315C117.967 32.4688 118.532 32.5664 119.008 32.7617C119.489 32.957 119.858 33.2461 120.116 33.6289C120.373 34.0117 120.502 34.4844 120.502 35.0469C120.502 35.5156 120.426 35.9141 120.274 36.2422C120.121 36.5703 119.907 36.8418 119.629 37.0566C119.356 37.2715 119.035 37.4453 118.668 37.5781L118.047 37.918H115.258L115.246 36.4355H117.321C117.606 36.4355 117.842 36.3848 118.03 36.2832C118.217 36.1816 118.358 36.0391 118.451 35.8555C118.549 35.668 118.598 35.4492 118.598 35.1992C118.598 34.9414 118.549 34.7188 118.451 34.5312C118.354 34.3438 118.209 34.2012 118.018 34.1035C117.83 34.002 117.596 33.9512 117.315 33.9512H115.95V41H114.039V32.4688ZM118.762 41L116.846 37.209L118.862 37.2031L120.807 40.9121V41H118.762ZM130.238 39.5234V41H125.697V39.5234H130.238ZM126.347 32.4688V41H124.437V32.4688H126.347ZM129.652 35.9023V37.332H125.697V35.9023H129.652ZM130.244 32.4688V33.9512H125.697V32.4688H130.244ZM138.817 32.3984V31.0449H141.424V43.0098H138.817V41.6621H139.59V32.3984H138.817Z" fill="#1F86A8"/>
</svg>
