<svg width="474" height="346" viewBox="0 0 474 346" fill="none" xmlns="http://www.w3.org/2000/svg">
<path d="M360.558 200.443H13.8178C10.1543 200.439 6.64209 198.98 4.05166 196.387C1.46122 193.793 0.00410482 190.277 0 186.609V13.8343C0.00417196 10.1665 1.46133 6.65007 4.05176 4.05654C6.64219 1.463 10.1544 0.00413272 13.8178 0H360.558C364.222 0.00413449 367.734 1.463 370.324 4.05654C372.915 6.65007 374.372 10.1665 374.376 13.8343V186.609C374.372 190.277 372.915 193.793 370.324 196.387C367.734 198.98 364.222 200.439 360.558 200.443Z" fill="#F0F0F0"/>
<path d="M398.62 247.584H51.8793C48.2158 247.58 44.7036 246.121 42.1132 243.527C39.5228 240.933 38.0656 237.417 38.0615 233.749V60.9747C38.0657 57.3069 39.5229 53.7905 42.1133 51.197C44.7037 48.6034 48.2159 47.1446 51.8793 47.1404H398.62C402.283 47.1446 405.795 48.6034 408.386 51.197C410.976 53.7905 412.433 57.3069 412.438 60.9747V233.749C412.434 237.417 410.976 240.933 408.386 243.527C405.796 246.121 402.283 247.58 398.62 247.584Z" fill="#F0F0F0"/>
<path d="M398.62 247.584H51.8793C48.2158 247.58 44.7036 246.121 42.1132 243.527C39.5228 240.933 38.0656 237.417 38.0615 233.749V60.9747C38.0657 57.3069 39.5229 53.7905 42.1133 51.197C44.7037 48.6034 48.2159 47.1446 51.8793 47.1404H398.62C402.283 47.1446 405.795 48.6034 408.386 51.197C410.976 53.7905 412.433 57.3069 412.438 60.9747V233.749C412.434 237.417 410.976 240.933 408.386 243.527C405.796 246.121 402.283 247.58 398.62 247.584ZM51.8793 49.1449C48.7467 49.1484 45.7434 50.3959 43.5283 52.6137C41.3131 54.8314 40.0671 57.8383 40.0635 60.9747V233.749C40.0671 236.886 41.3131 239.893 43.5282 242.11C45.7433 244.328 48.7466 245.576 51.8793 245.579H398.62C401.753 245.576 404.756 244.328 406.971 242.11C409.186 239.893 410.432 236.886 410.436 233.749V60.9747C410.432 57.8383 409.186 54.8314 406.971 52.6137C404.756 50.3959 401.753 49.1484 398.62 49.1449H51.8793Z" fill="#E4E4E4"/>
<path d="M78.5059 217.335H355.771V169.755C355.729 164.738 354.687 159.78 352.705 155.172C350.723 150.563 347.841 146.398 344.23 142.92L344.155 142.846C339.202 137.871 322.653 125.245 305.529 126.316C296.484 126.88 288.74 131.244 282.512 139.288C263.128 164.337 237.666 155.882 224.213 148.612C212.357 142.205 200.249 139.197 188.223 139.676C171.381 140.335 147.675 146.547 130.387 172.398C123.784 182.263 109.423 195.655 78.5059 203.525L78.5059 217.335Z" fill="#05769C"/>
<path d="M371.459 218.441H79.0392C78.7965 218.441 78.5637 218.345 78.3921 218.173C78.2205 218.001 78.124 217.768 78.124 217.525V77.1989C78.124 76.9559 78.2204 76.7229 78.3921 76.551C78.5637 76.3792 78.7965 76.2827 79.0392 76.2827C79.2819 76.2827 79.5146 76.3792 79.6863 76.551C79.8579 76.7229 79.9543 76.9559 79.9543 77.1989V216.609H371.459C371.701 216.609 371.934 216.705 372.106 216.877C372.277 217.049 372.374 217.282 372.374 217.525C372.374 217.768 372.277 218.001 372.106 218.173C371.934 218.345 371.701 218.441 371.459 218.441V218.441Z" fill="#3F3D56"/>
<path d="M187.612 146.615C190.644 146.615 193.103 144.153 193.103 141.117C193.103 138.081 190.644 135.62 187.612 135.62C184.579 135.62 182.121 138.081 182.121 141.117C182.121 144.153 184.579 146.615 187.612 146.615Z" fill="#3F3D56"/>
<path d="M295.305 132.238C298.338 132.238 300.796 129.777 300.796 126.741C300.796 123.704 298.338 121.243 295.305 121.243C292.273 121.243 289.814 123.704 289.814 126.741C289.814 129.777 292.273 132.238 295.305 132.238Z" fill="#3F3D56"/>
<path d="M241.459 161.89C244.491 161.89 246.949 159.428 246.949 156.392C246.949 153.356 244.491 150.895 241.459 150.895C238.426 150.895 235.968 153.356 235.968 156.392C235.968 159.428 238.426 161.89 241.459 161.89Z" fill="#3F3D56"/>
<path d="M133.765 169.976C136.798 169.976 139.256 167.515 139.256 164.479C139.256 161.443 136.798 158.981 133.765 158.981C130.733 158.981 128.274 161.443 128.274 164.479C128.274 167.515 130.733 169.976 133.765 169.976Z" fill="#3F3D56"/>
<path d="M349.151 152.006C352.184 152.006 354.642 149.544 354.642 146.508C354.642 143.472 352.184 141.011 349.151 141.011C346.119 141.011 343.66 143.472 343.66 146.508C343.66 149.544 346.119 152.006 349.151 152.006Z" fill="#3F3D56"/>
<path d="M458.209 225.572C457.603 224.987 457.132 224.277 456.83 223.49C456.527 222.703 456.401 221.86 456.46 221.019C456.518 220.178 456.76 219.361 457.169 218.624C457.577 217.886 458.142 217.248 458.823 216.753L452.903 197.142L463.094 200.181L467.154 218.338C467.908 219.54 468.196 220.976 467.963 222.376C467.73 223.776 466.993 225.041 465.89 225.933C464.788 226.825 463.397 227.28 461.981 227.214C460.565 227.147 459.223 226.563 458.209 225.572V225.572Z" fill="#9E616A"/>
<path d="M362.116 108.951C362.008 109.787 362.084 110.636 362.34 111.439C362.595 112.242 363.023 112.98 363.594 113.599C364.164 114.219 364.864 114.706 365.643 115.025C366.422 115.345 367.261 115.49 368.102 115.45L375.727 134.462L381.783 125.711L373.614 108.998C373.453 107.588 372.781 106.287 371.725 105.34C370.669 104.393 369.303 103.867 367.886 103.861C366.469 103.855 365.099 104.37 364.035 105.308C362.972 106.246 362.289 107.543 362.116 108.951V108.951Z" fill="#9E616A"/>
<path d="M448.082 337.606H441.062L437.723 310.495L448.084 310.495L448.082 337.606Z" fill="#9E616A"/>
<path d="M449.873 344.419L427.236 344.418V344.132C427.236 341.792 428.165 339.549 429.817 337.894C431.469 336.24 433.71 335.311 436.047 335.311H436.048L449.873 335.311L449.873 344.419Z" fill="#2F2E41"/>
<path d="M425.109 337.383L418.416 335.261L423.404 308.405L433.282 311.536L425.109 337.383Z" fill="#9E616A"/>
<path d="M424.762 344.419L403.182 337.579L403.268 337.305C403.973 335.075 405.535 333.216 407.609 332.139C409.683 331.061 412.099 330.852 414.327 331.558L414.328 331.558L427.508 335.736L424.762 344.419Z" fill="#2F2E41"/>
<path d="M416.795 205.102C416.795 205.102 406.378 221.478 410.059 236.093C413.74 250.708 417.748 278.801 417.748 278.801L437.706 326.354L452.582 325.746L437.809 269.679L438.393 232.192C438.393 232.192 448.661 214.276 446.661 208.699C444.662 203.122 416.795 205.102 416.795 205.102Z" fill="#2E3E41"/>
<path d="M450.825 210.957C450.825 210.957 452.106 227.202 448.098 234.082C444.089 240.961 439.819 267.147 439.819 267.147L433.005 319.518L418.894 314.92L430.927 256.245L440.385 210.09L450.825 210.957Z" fill="#2E3E41"/>
<path d="M455.828 132.317L444.817 124.74L428.062 124.253L422.227 129.98L413.323 134.532L412.498 208.699C412.498 208.699 439.163 221.495 453.508 215.319L460.409 157.543C463.272 146.077 455.828 132.317 455.828 132.317Z" fill="#B5654B"/>
<path d="M415.559 154.352H386.19L366.895 121.098L379.441 116.123L390.067 135.047L405.446 133.653L415.048 133.188C416.587 133.114 418.124 133.377 419.55 133.959C420.977 134.541 422.26 135.428 423.308 136.559C424.356 137.689 425.146 139.035 425.62 140.502C426.095 141.97 426.244 143.523 426.056 145.054V145.054C425.739 147.619 424.497 149.979 422.564 151.691C420.631 153.403 418.14 154.35 415.559 154.352V154.352Z" fill="#B5654B"/>
<path d="M437.806 118.145C445.829 118.145 452.333 111.633 452.333 103.6C452.333 95.5667 445.829 89.0546 437.806 89.0546C429.783 89.0546 423.278 95.5667 423.278 103.6C423.278 111.633 429.783 118.145 437.806 118.145Z" fill="#9E616A"/>
<path d="M455.311 100.291C454.865 97.0972 452.705 94.0652 449.633 93.0978C448.412 89.5498 445.18 86.9376 441.609 85.799C438.301 84.7432 434.738 84.8165 431.477 86.0073C428.215 87.1981 425.441 89.4391 423.59 92.3788C423.316 92.809 422.476 93.8659 422.5 94.3794C422.529 95.0314 423.526 95.7047 424.026 96.1158C425.267 97.0756 426.605 97.9024 428.018 98.5823C433.242 101.294 431.503 105.555 431.432 110.384C431.397 112.731 432.18 114.735 434.178 116.075C437.063 118.01 441.191 117.24 444.329 116.464C447.89 115.583 450.851 112.45 452.882 109.43C454.681 106.756 455.757 103.484 455.311 100.291Z" fill="#2F2E41"/>
<path d="M455.166 150.969L467.485 212.076L449.324 213.07L455.166 150.969Z" fill="#B5654B"/>
</svg>
