<svg width="452" height="280" viewBox="0 0 452 280" fill="none" xmlns="http://www.w3.org/2000/svg">
<path d="M272.735 247.902L256.431 252.321L272.853 242.116C272.5 225.848 266.881 208.979 266.881 208.979C266.881 208.979 231.785 219.253 222.574 237.045C213.363 254.836 220.613 266.582 233.525 273.408C246.436 280.234 260.119 279.555 269.33 261.764C271.38 257.803 272.394 252.991 272.735 247.902Z" fill="#F2F2F2"/>
<path d="M253.315 251.379L252.861 252.256C247.531 262.423 241.712 269.477 235.475 273.313C235.385 273.37 235.293 273.421 235.203 273.479L234.948 273.051L234.708 272.637C241.543 268.547 247.279 260.691 251.929 251.825C252.082 251.541 252.237 251.252 252.383 250.959C254.319 247.188 256.062 243.26 257.612 239.368C257.735 239.068 257.855 238.761 257.976 238.454C259.995 233.307 261.679 228.258 263.028 223.812C263.125 223.498 263.218 223.182 263.308 222.87C265.562 215.336 266.812 209.676 267.08 208.419C267.115 208.266 267.132 208.181 267.136 208.161L267.605 208.26L267.612 208.258L268.085 208.358C268.08 208.378 268.025 208.664 267.907 209.188C267.477 211.15 266.255 216.449 264.241 223.225C264.148 223.53 264.056 223.846 263.959 224.16C262.868 227.769 261.563 231.758 260.04 235.863C259.659 236.895 259.272 237.906 258.879 238.898C258.762 239.208 258.642 239.514 258.519 239.814C256.845 244.022 255.11 247.877 253.315 251.379Z" fill="white"/>
<path d="M264.241 223.225C263.933 223.112 263.62 222.997 263.308 222.87C262.46 222.528 261.629 222.143 260.82 221.715C257.368 219.896 254.365 217.318 252.03 214.171C251.731 214.305 251.431 214.44 251.125 214.577C253.563 217.923 256.725 220.661 260.37 222.583C261.234 223.04 262.122 223.45 263.029 223.812C263.336 223.936 263.649 224.051 263.959 224.16C266.513 225.072 269.19 225.586 271.897 225.686C271.836 225.349 271.777 225.02 271.72 224.696C269.169 224.581 266.648 224.085 264.241 223.225Z" fill="white"/>
<path d="M258.879 238.899C258.573 238.759 258.272 238.611 257.976 238.454C257.883 238.411 257.789 238.361 257.699 238.313C253.961 236.338 250.752 233.478 248.345 229.978C245.938 226.479 244.404 222.442 243.874 218.214C243.569 218.379 243.265 218.545 242.962 218.717C243.564 223.029 245.173 227.135 247.658 230.694C250.142 234.253 253.43 237.163 257.249 239.182C257.369 239.245 257.49 239.309 257.612 239.368C257.915 239.523 258.216 239.671 258.519 239.814C263.229 242.002 268.463 242.773 273.595 242.034C273.59 241.705 273.586 241.376 273.576 241.045C268.575 241.79 263.467 241.044 258.879 238.899Z" fill="white"/>
<path d="M253.314 251.379C253 251.246 252.691 251.105 252.383 250.959C252.054 250.802 251.727 250.64 251.405 250.47C246.386 247.809 242.356 243.577 239.916 238.407C237.477 233.238 236.76 227.409 237.873 221.793C237.497 222.043 237.124 222.288 236.757 222.542C235.829 228.241 236.701 234.09 239.25 239.259C241.798 244.429 245.894 248.655 250.956 251.338C251.278 251.508 251.602 251.674 251.929 251.825C252.239 251.977 252.548 252.119 252.86 252.256C259.184 254.988 266.297 255.189 272.762 252.819C272.838 252.45 272.899 252.078 272.962 251.702C266.62 254.181 259.573 254.065 253.314 251.379Z" fill="white"/>
<path d="M58.6292 249.445L74.9333 253.864L58.5112 243.66C58.8645 227.391 64.4837 210.522 64.4837 210.522C64.4837 210.522 99.5796 220.796 108.791 238.588C118.002 256.38 110.751 268.125 97.8399 274.951C84.9287 281.777 71.2459 281.098 62.0348 263.307C59.9846 259.347 58.9702 254.534 58.6292 249.445Z" fill="#F2F2F2"/>
<path d="M78.0506 252.923L78.5046 253.8C83.8337 263.966 89.6527 271.02 95.8904 274.856C95.9803 274.913 96.0724 274.964 96.1623 275.022L96.417 274.594L96.6567 274.18C89.8223 270.09 84.0863 262.234 79.4359 253.368C79.2832 253.084 79.1283 252.795 78.9821 252.502C77.0462 248.731 75.3027 244.803 73.7529 240.911C73.6303 240.611 73.5098 240.304 73.3893 239.998C71.3699 234.85 69.6862 229.801 68.3367 225.355C68.2399 225.041 68.1475 224.725 68.0572 224.413C65.8036 216.879 64.5534 211.219 64.2855 209.962C64.2502 209.809 64.2335 209.724 64.2288 209.704L63.76 209.803L63.7534 209.801L63.2803 209.902C63.285 209.921 63.3401 210.207 63.458 210.731C63.8884 212.693 65.1103 217.992 67.1246 224.768C67.2169 225.073 67.3094 225.389 67.4062 225.703C68.4976 229.312 69.8019 233.301 71.3252 237.406C71.7062 238.438 72.0933 239.45 72.4865 240.442C72.6027 240.751 72.7232 241.057 72.8458 241.358C74.5206 245.565 76.2556 249.42 78.0506 252.923Z" fill="white"/>
<path d="M59.645 226.239C59.588 226.563 59.5289 226.893 59.4678 227.229C62.175 227.129 64.8516 226.615 67.4059 225.703C67.7162 225.594 68.0286 225.479 68.3365 225.355C69.2434 224.993 70.1307 224.583 70.9948 224.127C74.6399 222.204 77.8021 219.466 80.24 216.12C79.9339 215.983 79.6343 215.849 79.3348 215.714C77.0002 218.861 73.9966 221.439 70.5452 223.258C69.7359 223.686 68.9053 224.072 68.0569 224.413C67.7448 224.54 67.4324 224.655 67.1243 224.768C64.7165 225.628 62.1962 226.124 59.645 226.239Z" fill="white"/>
<path d="M57.7885 242.588C57.7793 242.919 57.7744 243.248 57.7695 243.577C62.9015 244.316 68.1354 243.545 72.8455 241.358C73.1487 241.214 73.4496 241.066 73.7526 240.911C73.8751 240.852 73.9954 240.788 74.1157 240.725C77.9346 238.706 81.2224 235.796 83.7069 232.237C86.1914 228.678 87.801 224.572 88.4025 220.26C88.1001 220.088 87.7956 219.923 87.4912 219.757C86.961 223.986 85.4269 228.022 83.0197 231.521C80.6124 235.021 77.4034 237.881 73.6662 239.856C73.576 239.904 73.4815 239.954 73.389 239.997C73.0925 240.154 72.7916 240.302 72.4862 240.442C67.898 242.587 62.79 243.333 57.7885 242.588Z" fill="white"/>
<path d="M58.4028 253.245C58.4661 253.621 58.527 253.993 58.6031 254.362C65.0673 256.732 72.1812 256.531 78.5043 253.799C78.8163 253.662 79.126 253.521 79.4355 253.368C79.7625 253.217 80.0869 253.051 80.4091 252.881C85.4704 250.198 89.5664 245.972 92.1153 240.803C94.6641 235.633 95.5361 229.784 94.6074 224.085C94.2406 223.831 93.8675 223.586 93.492 223.337C94.6051 228.952 93.8882 234.781 91.4487 239.951C89.0092 245.12 84.9784 249.352 79.9596 252.013C79.6374 252.183 79.3107 252.345 78.9817 252.502C78.6742 252.648 78.3645 252.79 78.0503 252.923C71.7919 255.608 64.7444 255.724 58.4028 253.245Z" fill="white"/>
<path d="M135.069 261.903L144.775 264.534L134.999 258.459C135.209 248.774 138.554 238.731 138.554 238.731C138.554 238.731 159.448 244.848 164.931 255.439C170.415 266.031 166.098 273.024 158.412 277.087C150.726 281.151 142.58 280.747 137.096 270.155C135.876 267.798 135.272 264.932 135.069 261.903Z" fill="#F2F2F2"/>
<path d="M146.631 263.973L146.901 264.495C150.073 270.548 153.538 274.747 157.251 277.031C157.305 277.065 157.359 277.095 157.413 277.13L157.565 276.875L157.707 276.628C153.639 274.194 150.224 269.517 147.455 264.238C147.364 264.069 147.272 263.897 147.185 263.723C146.033 261.478 144.995 259.14 144.072 256.823C143.999 256.644 143.927 256.461 143.856 256.279C142.653 253.214 141.651 250.208 140.848 247.562C140.79 247.375 140.735 247.187 140.681 247.001C139.34 242.516 138.595 239.146 138.436 238.398C138.415 238.307 138.405 238.256 138.402 238.244L138.123 238.303L138.119 238.302L137.837 238.362C137.84 238.374 137.873 238.544 137.943 238.856C138.199 240.024 138.927 243.178 140.126 247.212C140.181 247.394 140.236 247.582 140.294 247.769C140.943 249.917 141.72 252.292 142.627 254.736C142.854 255.35 143.084 255.952 143.318 256.543C143.387 256.727 143.459 256.91 143.532 257.088C144.529 259.593 145.562 261.888 146.631 263.973Z" fill="white"/>
<path d="M135.673 248.088C135.639 248.281 135.604 248.477 135.568 248.677C137.18 248.618 138.773 248.312 140.294 247.769C140.478 247.704 140.664 247.635 140.848 247.562C141.388 247.346 141.916 247.102 142.43 246.83C144.6 245.686 146.483 244.056 147.934 242.064C147.752 241.982 147.574 241.902 147.395 241.822C146.005 243.696 144.217 245.231 142.163 246.313C141.681 246.568 141.186 246.798 140.681 247.001C140.495 247.076 140.309 247.145 140.126 247.212C138.693 247.724 137.192 248.019 135.673 248.088Z" fill="white"/>
<path d="M134.568 257.821C134.562 258.018 134.56 258.214 134.557 258.41C137.612 258.849 140.728 258.391 143.532 257.088C143.712 257.003 143.891 256.915 144.072 256.823C144.145 256.787 144.216 256.75 144.288 256.712C146.561 255.51 148.519 253.778 149.998 251.659C151.477 249.54 152.435 247.096 152.793 244.528C152.613 244.426 152.432 244.327 152.251 244.229C151.935 246.746 151.022 249.149 149.589 251.233C148.156 253.316 146.245 255.019 144.02 256.195C143.967 256.223 143.91 256.253 143.855 256.279C143.679 256.372 143.5 256.46 143.318 256.543C140.586 257.82 137.545 258.264 134.568 257.821Z" fill="white"/>
<path d="M134.934 264.166C134.971 264.389 135.008 264.61 135.053 264.83C138.901 266.241 143.136 266.121 146.901 264.495C147.086 264.414 147.271 264.329 147.455 264.238C147.65 264.149 147.843 264.05 148.035 263.948C151.048 262.351 153.486 259.835 155.003 256.758C156.521 253.681 157.04 250.198 156.487 246.806C156.269 246.654 156.047 246.508 155.823 246.36C156.486 249.703 156.059 253.173 154.607 256.251C153.154 259.328 150.755 261.848 147.767 263.432C147.575 263.533 147.381 263.629 147.185 263.723C147.002 263.81 146.817 263.894 146.63 263.973C142.904 265.572 138.709 265.641 134.934 264.166Z" fill="white"/>
<path d="M331.606 164.13C332.247 163.74 332.796 163.213 333.214 162.586C333.631 161.958 333.908 161.246 334.024 160.499C334.139 159.752 334.092 158.988 333.884 158.262C333.676 157.535 333.313 156.864 332.821 156.295L341.835 140.329L332.402 140.945L325.288 156.012C324.397 156.911 323.863 158.11 323.787 159.38C323.712 160.651 324.1 161.906 324.879 162.907C325.658 163.907 326.773 164.585 328.012 164.81C329.252 165.036 330.531 164.794 331.606 164.13V164.13Z" fill="#FFB6B6"/>
<path d="M400.995 272.967H394.755L391.786 248.644L400.996 248.644L400.995 272.967Z" fill="#FFB6B6"/>
<path d="M402.587 279.08L382.465 279.079V278.822C382.465 276.723 383.291 274.71 384.759 273.226C386.228 271.742 388.22 270.908 390.297 270.908H390.298L402.587 270.908L402.587 279.08Z" fill="#2F2E41"/>
<path d="M358.238 272.967H351.998L349.029 248.644L358.239 248.644L358.238 272.967Z" fill="#FFB6B6"/>
<path d="M359.83 279.08L339.708 279.079V278.822C339.709 276.723 340.534 274.71 342.003 273.226C343.471 271.742 345.463 270.908 347.54 270.908H347.541L359.83 270.908L359.83 279.08Z" fill="#2F2E41"/>
<path d="M342.192 141.015C342.192 141.015 340.475 165.716 343.856 178.156C347.236 190.596 347.84 265.825 347.84 265.825H359.171L368.993 163.422L391.635 266.186L402.428 265.436L396.509 144.343L342.192 141.015Z" fill="#2F2E41"/>
<path d="M391.826 57.7507L383.163 51.3628L368.648 54.5567L364.719 63.9914L357.948 67.3837C355.722 68.4991 353.797 70.144 352.339 72.1772C350.88 74.2103 349.933 76.5708 349.576 79.0559L339.904 146.554L396.509 144.343L403.361 64.8507C403.433 64.0203 403.339 63.1839 403.085 62.3909C402.831 61.5979 402.422 60.8644 401.883 60.2339C401.343 59.6034 400.684 59.0886 399.944 58.7201C399.204 58.3516 398.399 58.1368 397.575 58.0884L391.826 57.7507Z" fill="#E4E4E4"/>
<path d="M354.366 72.6561L349.138 79.778L326.367 149.961L337.041 154.28L354.132 121.576L354.366 72.6561Z" fill="#E4E4E4"/>
<path d="M373.084 47.2356C382.652 47.2356 390.409 39.3972 390.409 29.728C390.409 20.0588 382.652 12.2203 373.084 12.2203C363.515 12.2203 355.758 20.0588 355.758 29.728C355.758 39.3972 363.515 47.2356 373.084 47.2356Z" fill="#2F2E41"/>
<path d="M373.318 48.0278C380.3 48.0278 385.96 42.3078 385.96 35.2519C385.96 28.196 380.3 22.4761 373.318 22.4761C366.335 22.4761 360.675 28.196 360.675 35.2519C360.675 42.3078 366.335 48.0278 373.318 48.0278Z" fill="#FFB9B9"/>
<path d="M382.917 33.5958C374.867 30.6615 372.143 28.8589 363.25 33.5958L359.973 20.3467H386.195L382.917 33.5958Z" fill="#2F2E41"/>
<path d="M371.679 22.2395C377.11 22.2395 381.512 17.7906 381.512 12.3027C381.512 6.81475 377.11 2.36591 371.679 2.36591C366.248 2.36591 361.846 6.81475 361.846 12.3027C361.846 17.7906 366.248 22.2395 371.679 22.2395Z" fill="#2F2E41"/>
<path d="M359.973 9.93679C359.974 7.38489 360.947 4.93143 362.691 3.08562C364.435 1.23981 366.815 0.143376 369.338 0.0238834C369.181 0.0164251 369.027 0 368.869 0C366.261 0 363.76 1.04691 361.916 2.91042C360.072 4.77392 359.036 7.30138 359.036 9.93677C359.036 12.5722 360.072 15.0996 361.916 16.9631C363.76 18.8266 366.261 19.8736 368.869 19.8736C369.027 19.8736 369.181 19.8571 369.338 19.8497C366.815 19.7302 364.435 18.6337 362.691 16.7879C360.947 14.9421 359.974 12.4887 359.973 9.93679Z" fill="#2F2E41"/>
<path opacity="0.1" d="M396.053 76.698L392.526 112.233L380.068 137.044L396.053 76.698Z" fill="black"/>
<path d="M23.16 186.066H20.106V188.638H23.16V186.066Z" fill="#F0F0F0"/>
<path d="M312.037 188.638H306.019V186.066H312.037V188.638ZM300.001 188.638H293.982V186.066H300.001V188.638ZM287.964 188.638H281.946V186.066H287.964V188.638ZM275.928 188.638H269.909V186.066H275.928V188.638ZM263.891 188.638H257.873V186.066H263.891V188.638ZM251.855 188.638H245.836V186.066H251.855L251.855 188.638ZM239.818 188.638H233.8V186.066H239.818V188.638ZM227.781 188.638H221.763V186.066H227.781V188.638ZM215.745 188.638H209.727V186.066H215.745V188.638ZM203.708 188.638H197.69V186.066H203.708L203.708 188.638ZM191.672 188.638H185.654V186.066H191.672L191.672 188.638ZM179.635 188.638H173.617V186.066H179.635L179.635 188.638ZM167.599 188.638H161.58V186.066H167.599L167.599 188.638ZM155.562 188.638H149.544V186.066H155.562L155.562 188.638ZM143.525 188.638H137.507V186.066H143.526L143.525 188.638ZM131.489 188.638H125.471V186.066H131.489L131.489 188.638ZM119.452 188.638H113.434V186.066H119.453L119.452 188.638ZM107.416 188.638H101.398V186.066H107.416L107.416 188.638ZM95.3791 188.638H89.3611V186.066H95.3792L95.3791 188.638ZM83.3426 188.638H77.3246V186.066H83.3427L83.3426 188.638ZM71.306 188.638H65.288V186.066H71.3062L71.306 188.638ZM59.2695 188.638H53.2513V186.066H59.2697L59.2695 188.638ZM47.233 188.638H41.2148V186.066H47.2332L47.233 188.638ZM35.1964 188.638H29.1782V186.066H35.1966L35.1964 188.638Z" fill="#F0F0F0"/>
<path d="M23.16 120.741H20.106V123.313H23.16V120.741Z" fill="#F0F0F0"/>
<path d="M312.037 123.313H306.019V120.741H312.037V123.313ZM300.001 123.313H293.982V120.741H300.001V123.313ZM287.964 123.313H281.946V120.741H287.964V123.313ZM275.928 123.313H269.909V120.741H275.928V123.313ZM263.891 123.313H257.873V120.741H263.891V123.313ZM251.855 123.313H245.836V120.741H251.855L251.855 123.313ZM239.818 123.313H233.8V120.741H239.818V123.313ZM227.781 123.313H221.763V120.741H227.781V123.313ZM215.745 123.313H209.727V120.741H215.745V123.313ZM203.708 123.313H197.69V120.741H203.708L203.708 123.313ZM191.672 123.313H185.654V120.741H191.672L191.672 123.313ZM179.635 123.313H173.617V120.741H179.635L179.635 123.313ZM167.599 123.313H161.58V120.741H167.599L167.599 123.313ZM155.562 123.313H149.544V120.741H155.562L155.562 123.313ZM143.525 123.313H137.507V120.741H143.526L143.525 123.313ZM131.489 123.313H125.471V120.741H131.489L131.489 123.313ZM119.452 123.313H113.434V120.741H119.453L119.452 123.313ZM107.416 123.313H101.398V120.741H107.416L107.416 123.313ZM95.3791 123.313H89.3611V120.741H95.3792L95.3791 123.313ZM83.3426 123.313H77.3246V120.741H83.3427L83.3426 123.313ZM71.306 123.313H65.288V120.741H71.3062L71.306 123.313ZM59.2695 123.313H53.2513V120.741H59.2697L59.2695 123.313ZM47.233 123.313H41.2148V120.741H47.2332L47.233 123.313ZM35.1964 123.313H29.1782V120.741H35.1966L35.1964 123.313Z" fill="#F0F0F0"/>
<path d="M23.16 55.4164H20.106V57.9882H23.16V55.4164Z" fill="#F0F0F0"/>
<path d="M312.037 57.9882H306.019V55.4164H312.037V57.9882ZM300.001 57.9882H293.982V55.4164H300.001V57.9882ZM287.964 57.9882H281.946V55.4164H287.964V57.9882ZM275.928 57.9882H269.909V55.4164H275.928V57.9882ZM263.891 57.9882H257.873V55.4164H263.891V57.9882ZM251.855 57.9882H245.836V55.4164H251.855L251.855 57.9882ZM239.818 57.9882H233.8V55.4164H239.818V57.9882ZM227.781 57.9882H221.763V55.4164H227.781V57.9882ZM215.745 57.9882H209.727V55.4164H215.745V57.9882ZM203.708 57.9882H197.69V55.4164H203.708L203.708 57.9882ZM191.672 57.9882H185.654V55.4164H191.672L191.672 57.9882ZM179.635 57.9882H173.617V55.4164H179.635L179.635 57.9882ZM167.599 57.9882H161.58V55.4164H167.599L167.599 57.9882ZM155.562 57.9882H149.544V55.4164H155.562L155.562 57.9882ZM143.525 57.9882H137.507V55.4164H143.526L143.525 57.9882ZM131.489 57.9882H125.471V55.4164H131.489L131.489 57.9882ZM119.452 57.9882H113.434V55.4164H119.453L119.452 57.9882ZM107.416 57.9882H101.398V55.4164H107.416L107.416 57.9882ZM95.3791 57.9882H89.3611V55.4164H95.3792L95.3791 57.9882ZM83.3426 57.9882H77.3246V55.4164H83.3427L83.3426 57.9882ZM71.306 57.9882H65.288V55.4164H71.3062L71.306 57.9882ZM59.2695 57.9882H53.2513V55.4164H59.2697L59.2695 57.9882ZM47.233 57.9882H41.2148V55.4164H47.2332L47.233 57.9882ZM35.1964 57.9882H29.1782V55.4164H35.1966L35.1964 57.9882Z" fill="#F0F0F0"/>
<path d="M119.617 186.837H94.6758V279.424H119.617V186.837Z" fill="#3F3D56"/>
<path d="M124.198 186.837H99.2568V279.424H124.198V186.837Z" fill="#FFF6A8"/>
<path d="M178.662 121.513H153.721V279.424H178.662V121.513Z" fill="#3F3D56"/>
<path d="M183.243 121.513H158.302V279.424H183.243V121.513Z" fill="#FFF6A8"/>
<path d="M237.707 56.1879H212.766V279.424H237.707V56.1879Z" fill="#3F3D56"/>
<path d="M242.288 56.1879H217.347V279.424H242.288V56.1879Z" fill="#FFF6A8"/>
<path d="M20.3605 62.8747C23.734 62.8747 26.4687 60.1112 26.4687 56.7023C26.4687 53.2933 23.734 50.5299 20.3605 50.5299C16.9871 50.5299 14.2524 53.2933 14.2524 56.7023C14.2524 60.1112 16.9871 62.8747 20.3605 62.8747Z" fill="#F0F0F0"/>
<path d="M20.3605 128.199C23.734 128.199 26.4687 125.436 26.4687 122.027C26.4687 118.618 23.734 115.855 20.3605 115.855C16.9871 115.855 14.2524 118.618 14.2524 122.027C14.2524 125.436 16.9871 128.199 20.3605 128.199Z" fill="#F0F0F0"/>
<path d="M20.3605 193.524C23.734 193.524 26.4687 190.761 26.4687 187.352C26.4687 183.943 23.734 181.179 20.3605 181.179C16.9871 181.179 14.2524 183.943 14.2524 187.352C14.2524 190.761 16.9871 193.524 20.3605 193.524Z" fill="#F0F0F0"/>
<path d="M452 278.847H0V280H452V278.847Z" fill="#3F3D56"/>
<path d="M375.645 149.638C375.593 148.884 375.705 148.127 375.973 147.421C376.242 146.715 376.66 146.078 377.199 145.553C377.737 145.028 378.383 144.629 379.091 144.384C379.799 144.138 380.551 144.053 381.295 144.133L389.052 127.507L393.97 135.664L385.851 150.202C385.634 151.456 384.97 152.586 383.984 153.378C382.998 154.171 381.758 154.57 380.5 154.501C379.242 154.431 378.053 153.898 377.159 153.002C376.264 152.105 375.725 150.909 375.645 149.638Z" fill="#FFB6B6"/>
<path d="M396.733 62.6701L399.927 58.4606C399.927 58.4606 407.71 56.8588 409.032 67.6612L408.2 115.685L391.145 142.811L380.068 139.954L394.55 107.73L396.733 62.6701Z" fill="#E4E4E4"/>
</svg>
